<?xml version="1.0" encoding="iso-8859-1"?>
<!-- Uploaded to: SVG Repo, www.svgrepo.com, Generator: SVG Repo Mixer Tools -->
<!DOCTYPE svg PUBLIC "-//W3C//DTD SVG 1.1//EN" "http://www.w3.org/Graphics/SVG/1.1/DTD/svg11.dtd">
<svg fill="#000000" height="800px" width="800px" version="1.1" id="Capa_1" xmlns="http://www.w3.org/2000/svg" xmlns:xlink="http://www.w3.org/1999/xlink" 
	 viewBox="0 0 459.178 459.178" xml:space="preserve">
<g id="XMLID_312_">
	<circle id="XMLID_333_" cx="343.175" cy="86.309" r="42.359"/>
	<path id="XMLID_864_" d="M444.707,166.056c5.967-0.698,11.074-4.607,13.303-10.187c2.229-5.578,1.224-11.93-2.62-16.549
		l-38.632-46.414c-5.786-6.951-16.107-7.894-23.058-2.11c-6.95,5.785-7.894,16.109-2.11,23.059l19.299,23.188l-35.853,4.192
		c-26.069,0-49.693,0-75.672,0c-16.041,0-29.871,9.851-35.739,23.82l60.351-13.514c23.172-5.189,46.14,9.409,51.319,32.541
		c5.186,23.157-9.383,46.134-32.541,51.32l-42.538,9.525c0,14.537-0.356,164.669-0.356,179.213c0,10.851,8.796,19.648,19.647,19.648
		c10.851,0,19.647-8.797,19.647-19.648c0-30.281,0-100.472,0-119.662c0-2.359,1.913-4.272,4.272-4.272
		c2.326,0,4.211,1.885,4.211,4.211c0,19.101,0,89.411,0,119.723c0,10.851,8.796,19.648,19.647,19.648
		c10.851,0,19.647-8.797,19.647-19.648c0-33.487,0.008-251.328,0.008-251.328L444.707,166.056z"/>
	<g id="XMLID_334_">
		<path id="XMLID_340_" d="M354.33,188.775c-2.593-11.58-14.081-18.867-25.66-16.27l-72.521,16.239l-50.305-48.193l48.183,26.653
			l6.809-1.525c-0.585-12.33-8.303-23.742-20.573-28.426l-53.367-20.377c-16.528-6.311-35.042,1.972-41.353,18.5
			c0,0-36.313,95.934-53.648,141.703c-3.118,8.232-4.072,17.167-2.722,25.865l13.853,89.282H25.781
			C11.543,392.225,0,403.767,0,418.005s11.543,25.781,25.781,25.781h107.285c7.521,0,14.667-3.283,19.564-8.991
			c4.898-5.708,7.059-13.268,5.919-20.702l-14.744-96.039l66.095,16.647l-18.316,77.358c-3.28,13.855,5.292,27.748,19.147,31.028
			c13.869,3.281,27.75-5.304,31.028-19.148l24.172-102.092c0.695-2.935,0.828-5.866,0.522-8.705c2.736,2.095,6.141,3.362,9.852,3.38
			c0.028,0,0.056,0,0.084,0c9.004,0,16.326-7.276,16.37-16.29l0.27-53.698l-32.782,7.341l-0.225,44.806
			c-3.311-3.693-7.716-6.474-12.882-7.776l-28.514-7.182l11.655-30.525c-4.214-2.352-7.831-5.749-10.403-9.947l-43.757-71.672
			l58.62,56.16c5.213,4.994,12.566,7.019,19.557,5.45l83.761-18.757C349.638,211.841,356.923,200.353,354.33,188.775z"/>
	</g>
	<circle id="XMLID_874_" cx="244.281" cy="62.825" r="47.42"/>
</g>
</svg>