<?xml version="1.0" encoding="UTF-8"?>
<!DOCTYPE svg PUBLIC "-//W3C//DTD SVG 1.1//EN" "http://www.w3.org/Graphics/SVG/1.1/DTD/svg11.dtd">
<svg xmlns="http://www.w3.org/2000/svg" version="1.1" width="244px" height="192px" style="shape-rendering:geometricPrecision; text-rendering:geometricPrecision; image-rendering:optimizeQuality; fill-rule:evenodd; clip-rule:evenodd" xmlns:xlink="http://www.w3.org/1999/xlink">
<g><path style="opacity:0.308" fill="#6b6b6b" d="M 71.5,31.5 C 64.8409,30.2168 58.1742,30.2168 51.5,31.5C 54.6952,29.9704 58.1952,29.3037 62,29.5C 64.5,29.6667 67,29.8333 69.5,30C 70.4158,30.2784 71.0825,30.7784 71.5,31.5 Z"/></g>
<g><path style="opacity:0.908" fill="#3b3e4d" d="M 243.5,28.5 C 243.5,71.5 243.5,114.5 243.5,157.5C 242.167,136.344 241.5,114.844 241.5,93C 241.5,71.1561 242.167,49.6561 243.5,28.5 Z"/></g>
<g><path style="opacity:0.373" fill="#646464" d="M 50.5,31.5 C 49.5144,33.4077 47.8477,34.4077 45.5,34.5C 46.6594,32.7497 48.326,31.7497 50.5,31.5 Z"/></g>
<g><path style="opacity:0.6" fill="#474747" d="M 158.5,32.5 C 161.976,31.3567 165.642,31.1901 169.5,32C 170.942,32.3768 171.942,33.2101 172.5,34.5C 168.059,32.8926 163.392,32.2259 158.5,32.5 Z"/></g>
<g><path style="opacity:0.141" fill="#484848" d="M 75.5,32.5 C 78.7541,32.7936 81.4208,34.127 83.5,36.5C 80.5152,35.6743 77.8485,34.341 75.5,32.5 Z"/></g>
<g><path style="opacity:0.639" fill="#7a7a7a" d="M 158.5,32.5 C 156.761,35.2427 154.427,37.2427 151.5,38.5C 153.239,35.7573 155.573,33.7573 158.5,32.5 Z"/></g>
<g><path style="opacity:0.161" fill="#454545" d="M 83.5,36.5 C 85.674,36.7497 87.3406,37.7497 88.5,39.5C 86.326,39.2503 84.6594,38.2503 83.5,36.5 Z"/></g>
<g><path style="opacity:0.643" fill="#737373" d="M 45.5,34.5 C 44.0892,36.914 42.0892,38.5806 39.5,39.5C 40.9108,37.086 42.9108,35.4194 45.5,34.5 Z"/></g>
<g><path style="opacity:0.999" fill="#d3d4d4" d="M 71.5,31.5 C 73.099,31.2322 74.4324,31.5655 75.5,32.5C 77.8485,34.341 80.5152,35.6743 83.5,36.5C 84.6594,38.2503 86.326,39.2503 88.5,39.5C 90.1898,39.8564 91.1898,40.8564 91.5,42.5C 91.2605,46.8422 90.9272,51.1756 90.5,55.5C 90.5,56.8333 90.5,58.1667 90.5,59.5C 89.6586,61.3792 89.3253,63.3792 89.5,65.5C 88.8333,66.8333 88.1667,66.8333 87.5,65.5C 85.4768,62.4797 82.8102,60.1464 79.5,58.5C 73.9787,54.1982 67.6453,52.1982 60.5,52.5C 58.5328,52.7394 56.6995,52.4061 55,51.5C 54.5172,52.448 54.3505,53.448 54.5,54.5C 53.1266,54.3433 51.7932,54.51 50.5,55C 51.7836,56.2975 51.6169,57.4642 50,58.5C 49.6667,57.8333 49.3333,57.1667 49,56.5C 48.5034,58.8098 48.3367,61.1432 48.5,63.5C 46.4152,65.6845 45.4152,68.3511 45.5,71.5C 45.1667,76.8333 44.8333,82.1667 44.5,87.5C 44.1977,91.7905 44.8643,95.7905 46.5,99.5C 46.5,99.8333 46.5,100.167 46.5,100.5C 46.6538,105.289 47.9871,109.622 50.5,113.5C 50.4769,117.468 52.1436,120.468 55.5,122.5C 55.427,124.027 56.0937,125.027 57.5,125.5C 57.8276,128.172 59.3276,129.839 62,130.5C 62.6917,131.437 62.525,132.103 61.5,132.5C 56.5153,131.509 51.8487,129.676 47.5,127C 45.6298,124.96 43.6298,123.127 41.5,121.5C 39.7728,117.052 37.2728,113.052 34,109.5C 28.9449,95.6268 26.7782,81.2934 27.5,66.5C 27.3253,64.3792 27.6586,62.3792 28.5,60.5C 30.3969,58.3025 31.3969,55.6358 31.5,52.5C 32.9166,47.3212 35.5832,42.9879 39.5,39.5C 42.0892,38.5806 44.0892,36.914 45.5,34.5C 47.8477,34.4077 49.5144,33.4077 50.5,31.5C 50.8333,31.5 51.1667,31.5 51.5,31.5C 58.1742,30.2168 64.8409,30.2168 71.5,31.5 Z"/></g>
<g><path style="opacity:0.341" fill="#595959" d="M 173.5,34.5 C 175.9,36.2964 177.567,38.6298 178.5,41.5C 176.1,39.7036 174.433,37.3702 173.5,34.5 Z"/></g>
<g><path style="opacity:0.541" fill="#6b6e70" d="M 148.5,42.5 C 147.567,45.3702 145.9,47.7036 143.5,49.5C 144.433,46.6298 146.1,44.2964 148.5,42.5 Z"/></g>
<g><path style="opacity:0.018" fill="#2a2a2a" d="M 91.5,42.5 C 92.8607,46.9298 92.5274,51.2632 90.5,55.5C 90.9272,51.1756 91.2605,46.8422 91.5,42.5 Z"/></g>
<g><path style="opacity:0.998" fill="#d4d4d4" d="M 158.5,32.5 C 163.392,32.2259 168.059,32.8926 172.5,34.5C 172.833,34.5 173.167,34.5 173.5,34.5C 174.433,37.3702 176.1,39.7036 178.5,41.5C 181.674,46.5156 184.341,51.8489 186.5,57.5C 189.195,66.5542 193.195,74.8875 198.5,82.5C 198.12,84.698 198.787,86.3646 200.5,87.5C 202.02,89.8902 203.02,92.5568 203.5,95.5C 203.427,97.0269 204.094,98.0269 205.5,98.5C 206.537,99.9303 207.204,101.597 207.5,103.5C 207.837,107.836 209.504,111.503 212.5,114.5C 212.182,117.481 213.182,119.815 215.5,121.5C 215.595,123.786 216.262,125.786 217.5,127.5C 217.755,129.967 218.755,131.967 220.5,133.5C 221.768,135.905 222.435,138.572 222.5,141.5C 222.08,145.007 221.08,148.341 219.5,151.5C 217.847,151.66 216.514,152.326 215.5,153.5C 214.833,153.5 214.167,153.5 213.5,153.5C 208.463,153.092 203.463,152.426 198.5,151.5C 194.851,150.733 191.518,149.4 188.5,147.5C 186.879,145.058 184.546,143.725 181.5,143.5C 180.508,143.672 179.842,143.338 179.5,142.5C 178.15,141.35 178.316,140.683 180,140.5C 186.211,143.146 192.378,143.146 198.5,140.5C 199.139,139.903 199.472,139.07 199.5,138C 198.462,134.552 197.629,131.052 197,127.5C 195.812,123.387 193.979,119.72 191.5,116.5C 190.605,113.262 190.605,110.095 191.5,107C 190.423,106.53 189.423,106.697 188.5,107.5C 182.06,93.6211 175.393,79.9544 168.5,66.5C 168.5,65.8333 168.5,65.1667 168.5,64.5C 166.071,58.4783 162.737,52.9783 158.5,48C 150.949,46.026 145.449,48.526 142,55.5C 141.536,54.9056 141.369,54.2389 141.5,53.5C 141.66,51.847 142.326,50.5137 143.5,49.5C 145.9,47.7036 147.567,45.3702 148.5,42.5C 148.738,40.5956 149.738,39.2623 151.5,38.5C 154.427,37.2427 156.761,35.2427 158.5,32.5 Z"/></g>
<g><path style="opacity:0.953" fill="#909090" d="M 60.5,52.5 C 54.9983,54.4786 50.9983,58.1453 48.5,63.5C 48.3367,61.1432 48.5034,58.8098 49,56.5C 49.3333,57.1667 49.6667,57.8333 50,58.5C 51.6169,57.4642 51.7836,56.2975 50.5,55C 51.7932,54.51 53.1266,54.3433 54.5,54.5C 54.3505,53.448 54.5172,52.448 55,51.5C 56.6995,52.4061 58.5328,52.7394 60.5,52.5 Z"/></g>
<g><path style="opacity:0.102" fill="#646464" d="M 31.5,52.5 C 31.3969,55.6358 30.3969,58.3025 28.5,60.5C 28.9028,57.5145 29.9028,54.8478 31.5,52.5 Z"/></g>
<g><path style="opacity:0.306" fill="#3c3c3c" d="M 79.5,58.5 C 82.8102,60.1464 85.4768,62.4797 87.5,65.5C 84.2358,63.9059 81.5691,61.5725 79.5,58.5 Z"/></g>
<g><path style="opacity:0.686" fill="#545454" d="M 186.5,57.5 C 191.266,65.3676 195.266,73.701 198.5,82.5C 193.195,74.8875 189.195,66.5542 186.5,57.5 Z"/></g>
<g><path style="opacity:0.224" fill="#505050" d="M 90.5,59.5 C 91.0431,59.56 91.3764,59.8933 91.5,60.5C 90.9724,62.3361 90.3058,64.0028 89.5,65.5C 89.3253,63.3792 89.6586,61.3792 90.5,59.5 Z"/></g>
<g><path style="opacity:0.2" fill="#666666" d="M 48.5,63.5 C 48.2671,66.5418 47.2671,69.2084 45.5,71.5C 45.4152,68.3511 46.4152,65.6845 48.5,63.5 Z"/></g>
<g><path style="opacity:0.541" fill="#525252" d="M 198.5,82.5 C 199.537,83.9303 200.204,85.597 200.5,87.5C 198.787,86.3646 198.12,84.698 198.5,82.5 Z"/></g>
<g><path style="opacity:0.997" fill="#333e4e" d="M 168.5,64.5 C 165.782,63.6623 163.616,62.329 162,60.5C 161.667,61.5 161.333,62.5 161,63.5C 160.625,60.9999 159.792,58.6666 158.5,56.5C 154.535,55.8632 150.702,54.8632 147,53.5C 142.081,61.5629 137.915,70.0629 134.5,79C 135.025,79.6924 135.692,80.1924 136.5,80.5C 137.662,85.467 137.829,90.467 137,95.5C 135.417,95.507 133.751,95.1737 132,94.5C 131.333,85.1667 130.667,85.1667 130,94.5C 128.667,95.8333 127.333,95.8333 126,94.5C 123.609,98.8544 122.942,103.521 124,108.5C 124.308,107.692 124.808,107.025 125.5,106.5C 126.429,107.689 126.762,109.022 126.5,110.5C 120.545,111.363 114.545,111.697 108.5,111.5C 110.678,109.142 112.345,106.475 113.5,103.5C 122.851,86.7936 132.184,70.1269 141.5,53.5C 141.369,54.2389 141.536,54.9056 142,55.5C 145.449,48.526 150.949,46.026 158.5,48C 162.737,52.9783 166.071,58.4783 168.5,64.5 Z"/></g>
<g><path style="opacity:1" fill="#343f56" d="M 168.5,64.5 C 168.5,65.1667 168.5,65.8333 168.5,66.5C 169.11,67.391 169.443,68.391 169.5,69.5C 167.726,68.119 166.226,68.4523 165,70.5C 161.503,79.5017 157.003,87.8351 151.5,95.5C 145.038,105.829 137.871,115.829 130,125.5C 127.5,127.333 125.333,129.5 123.5,132C 122.207,132.49 120.873,132.657 119.5,132.5C 117.659,136.357 114.992,139.691 111.5,142.5C 105.153,145.09 98.9867,148.09 93,151.5C 80.4185,155.473 67.9185,155.473 55.5,151.5C 46.0819,146.08 39.0819,138.414 34.5,128.5C 37.9378,127.307 40.2712,124.974 41.5,121.5C 43.6298,123.127 45.6298,124.96 47.5,127C 51.8487,129.676 56.5153,131.509 61.5,132.5C 62.9464,133.613 64.6131,133.78 66.5,133C 65.944,132.617 65.6107,132.117 65.5,131.5C 69.5138,131.666 73.5138,131.499 77.5,131C 83.6804,128.078 89.6804,124.911 95.5,121.5C 100.385,118.957 104.718,115.623 108.5,111.5C 114.545,111.697 120.545,111.363 126.5,110.5C 126.762,109.022 126.429,107.689 125.5,106.5C 124.808,107.025 124.308,107.692 124,108.5C 122.942,103.521 123.609,98.8544 126,94.5C 127.333,95.8333 128.667,95.8333 130,94.5C 130.667,85.1667 131.333,85.1667 132,94.5C 133.751,95.1737 135.417,95.507 137,95.5C 137.829,90.467 137.662,85.467 136.5,80.5C 135.692,80.1924 135.025,79.6924 134.5,79C 137.915,70.0629 142.081,61.5629 147,53.5C 150.702,54.8632 154.535,55.8632 158.5,56.5C 159.792,58.6666 160.625,60.9999 161,63.5C 161.333,62.5 161.667,61.5 162,60.5C 163.616,62.329 165.782,63.6623 168.5,64.5 Z"/></g>
<g><path style="opacity:0.165" fill="#464545" d="M 168.5,66.5 C 175.393,79.9544 182.06,93.6211 188.5,107.5C 188.5,108.167 188.5,108.833 188.5,109.5C 181.673,96.5085 175.34,83.1752 169.5,69.5C 169.443,68.391 169.11,67.391 168.5,66.5 Z"/></g>
<g><path style="opacity:0.114" fill="#262626" d="M 44.5,87.5 C 45.7947,91.2671 46.4613,95.2671 46.5,99.5C 44.8643,95.7905 44.1977,91.7905 44.5,87.5 Z"/></g>
<g><path style="opacity:0.122" fill="#414141" d="M 203.5,95.5 C 204.906,95.9731 205.573,96.9731 205.5,98.5C 204.094,98.0269 203.427,97.0269 203.5,95.5 Z"/></g>
<g><path style="opacity:0.486" fill="#181a27" d="M 243.5,25.5 C 243.5,26.5 243.5,27.5 243.5,28.5C 242.167,49.6561 241.5,71.1561 241.5,93C 241.5,114.844 242.167,136.344 243.5,157.5C 243.5,158.167 243.5,158.833 243.5,159.5C 242.504,159.586 241.671,159.252 241,158.5C 240.667,157.167 240.333,155.833 240,154.5C 239.833,144.5 239.667,134.5 239.5,124.5C 240.523,93.8129 240.523,63.1462 239.5,32.5C 239.728,29.4335 241.061,27.1002 243.5,25.5 Z"/></g>
<g><path style="opacity:0.18" fill="#10151e" d="M 151.5,95.5 C 141.647,115.661 127.647,132.494 109.5,146C 95.0214,155.214 79.3547,158.214 62.5,155C 59.8261,154.33 57.4927,153.163 55.5,151.5C 67.9185,155.473 80.4185,155.473 93,151.5C 98.9867,148.09 105.153,145.09 111.5,142.5C 114.992,139.691 117.659,136.357 119.5,132.5C 120.873,132.657 122.207,132.49 123.5,132C 125.333,129.5 127.5,127.333 130,125.5C 137.871,115.829 145.038,105.829 151.5,95.5 Z"/></g>
<g><path style="opacity:0.969" fill="#393d49" d="M 27.5,66.5 C 26.7782,81.2934 28.9449,95.6268 34,109.5C 37.2728,113.052 39.7728,117.052 41.5,121.5C 40.2712,124.974 37.9378,127.307 34.5,128.5C 31.563,121.09 29.3964,113.423 28,105.5C 27.4446,96.0029 26.9446,86.5029 26.5,77C 26.5014,73.3167 26.8348,69.8167 27.5,66.5 Z"/></g>
<g><path style="opacity:0.376" fill="#292929" d="M 46.5,100.5 C 48.2035,104.617 49.5368,108.951 50.5,113.5C 47.9871,109.622 46.6538,105.289 46.5,100.5 Z"/></g>
<g><path style="opacity:0.952" fill="#959294" d="M 191.5,116.5 C 189.935,114.491 188.935,112.157 188.5,109.5C 188.5,108.833 188.5,108.167 188.5,107.5C 189.423,106.697 190.423,106.53 191.5,107C 190.605,110.095 190.605,113.262 191.5,116.5 Z"/></g>
<g><path style="opacity:0.631" fill="#505050" d="M 207.5,103.5 C 209.951,106.74 211.618,110.407 212.5,114.5C 209.504,111.503 207.837,107.836 207.5,103.5 Z"/></g>
<g><path style="opacity:0.455" fill="#12161f" d="M 113.5,103.5 C 112.345,106.475 110.678,109.142 108.5,111.5C 104.718,115.623 100.385,118.957 95.5,121.5C 101.833,115.833 107.833,109.833 113.5,103.5 Z"/></g>
<g><path style="opacity:0.259" fill="#191a24" d="M 175.5,116.5 C 169.082,117.906 162.748,117.573 156.5,115.5C 156.5,116.833 156.5,118.167 156.5,119.5C 153.702,117.016 154.035,115.016 157.5,113.5C 163.559,114.904 169.559,115.904 175.5,116.5 Z"/></g>
<g><path style="opacity:0.694" fill="#363636" d="M 50.5,113.5 C 52.5595,116.24 54.2262,119.24 55.5,122.5C 52.1436,120.468 50.4769,117.468 50.5,113.5 Z"/></g>
<g><path style="opacity:0.478" fill="#5a5a5c" d="M 191.5,116.5 C 193.979,119.72 195.812,123.387 197,127.5C 197.629,131.052 198.462,134.552 199.5,138C 199.472,139.07 199.139,139.903 198.5,140.5C 198.634,138.708 198.301,137.042 197.5,135.5C 195.9,129.033 193.9,122.7 191.5,116.5 Z"/></g>
<g><path style="opacity:0.082" fill="#272727" d="M 212.5,114.5 C 214.293,116.426 215.293,118.759 215.5,121.5C 213.182,119.815 212.182,117.481 212.5,114.5 Z"/></g>
<g><path style="opacity:0.227" fill="#0d111c" d="M 176.5,116.5 C 179.223,119.586 181.723,122.92 184,126.5C 187.145,129.632 190.312,132.632 193.5,135.5C 192.448,135.649 191.448,135.483 190.5,135C 184.499,129.827 179.833,123.661 176.5,116.5 Z"/></g>
<g><path style="opacity:1" fill="#363f54" d="M 175.5,116.5 C 175.833,116.5 176.167,116.5 176.5,116.5C 179.833,123.661 184.499,129.827 190.5,135C 191.448,135.483 192.448,135.649 193.5,135.5C 194.833,135.5 196.167,135.5 197.5,135.5C 198.301,137.042 198.634,138.708 198.5,140.5C 192.378,143.146 186.211,143.146 180,140.5C 178.316,140.683 178.15,141.35 179.5,142.5C 169.5,137.167 161.833,129.5 156.5,119.5C 156.5,118.167 156.5,116.833 156.5,115.5C 162.748,117.573 169.082,117.906 175.5,116.5 Z"/></g>
<g><path style="opacity:0.373" fill="#373737" d="M 55.5,122.5 C 56.9063,122.973 57.573,123.973 57.5,125.5C 56.0937,125.027 55.427,124.027 55.5,122.5 Z"/></g>
<g><path style="opacity:0.039" fill="#2c2c2c" d="M 215.5,121.5 C 217.074,123.102 217.741,125.102 217.5,127.5C 216.262,125.786 215.595,123.786 215.5,121.5 Z"/></g>
<g><path style="opacity:0.875" fill="#808186" d="M 57.5,125.5 C 60.205,127.512 62.8717,129.512 65.5,131.5C 65.6107,132.117 65.944,132.617 66.5,133C 64.6131,133.78 62.9464,133.613 61.5,132.5C 62.525,132.103 62.6917,131.437 62,130.5C 59.3276,129.839 57.8276,128.172 57.5,125.5 Z"/></g>
<g><path style="opacity:0.114" fill="#2c2c2c" d="M 217.5,127.5 C 219.539,128.911 220.539,130.911 220.5,133.5C 218.755,131.967 217.755,129.967 217.5,127.5 Z"/></g>
<g><path style="opacity:0.475" fill="#5f5f5f" d="M 181.5,143.5 C 184.546,143.725 186.879,145.058 188.5,147.5C 185.9,146.532 183.566,145.199 181.5,143.5 Z"/></g>
<g><path style="opacity:0.282" fill="#484848" d="M 222.5,141.5 C 223.901,145.409 222.901,148.742 219.5,151.5C 221.08,148.341 222.08,145.007 222.5,141.5 Z"/></g>
<g><path style="opacity:0.337" fill="#3f3f3f" d="M 198.5,151.5 C 203.463,152.426 208.463,153.092 213.5,153.5C 208.325,154.669 203.325,154.003 198.5,151.5 Z"/></g>
<g><path style="opacity:0.024" fill="#3e3e3e" d="M 219.5,151.5 C 218.713,153.104 217.38,153.771 215.5,153.5C 216.514,152.326 217.847,151.66 219.5,151.5 Z"/></g>
</svg>
